 <svg
    width="24"
    height="24"
    viewBox="0 0 24 24"
    fill="none"
    xmlns="http://www.w3.org/2000/svg"
  >
    <path
      d="M14.3418 12.2085C14.3418 12.8589 14.3066 13.4858 14.2451 14.0835H8.81348C8.74902 13.4858 8.7168 12.8589 8.7168 12.2085C8.7168 11.5581 8.75195 10.9312 8.81348 10.3335H14.2451C14.3096 10.9312 14.3418 11.5581 14.3418 12.2085ZM15.1855 10.3335H18.792C18.9473 10.9341 19.0293 11.561 19.0293 12.2085C19.0293 12.856 18.9473 13.4829 18.792 14.0835H15.1855C15.2471 13.48 15.2793 12.853 15.2793 12.2085C15.2793 11.564 15.2471 10.937 15.1855 10.3335ZM18.4844 9.396H15.0654C14.7725 7.52393 14.1924 5.95654 13.4453 4.95459C15.7393 5.56104 17.6055 7.2251 18.4814 9.396H18.4844ZM14.1162 9.396H8.94238C9.12109 8.32959 9.39648 7.38623 9.7334 6.62158C10.041 5.93018 10.3838 5.4292 10.7148 5.11279C11.043 4.80225 11.3154 4.7085 11.5293 4.7085C11.7432 4.7085 12.0156 4.80225 12.3438 5.11279C12.6748 5.4292 13.0176 5.93018 13.3252 6.62158C13.665 7.3833 13.9375 8.32666 14.1162 9.396ZM7.99316 9.396H4.57422C5.45312 7.2251 7.31641 5.56104 9.61328 4.95459C8.86621 5.95654 8.28613 7.52393 7.99316 9.396ZM4.2666 10.3335H7.87305C7.81152 10.937 7.7793 11.564 7.7793 12.2085C7.7793 12.853 7.81152 13.48 7.87305 14.0835H4.2666C4.11133 13.4829 4.0293 12.856 4.0293 12.2085C4.0293 11.561 4.11133 10.9341 4.2666 10.3335ZM9.7334 17.7925C9.39355 17.0308 9.12109 16.0874 8.94238 15.021H14.1162C13.9375 16.0874 13.6621 17.0308 13.3252 17.7925C13.0176 18.4839 12.6748 18.9849 12.3438 19.3013C12.0156 19.6147 11.7432 19.7085 11.5293 19.7085C11.3154 19.7085 11.043 19.6147 10.7148 19.3042C10.3838 18.9878 10.041 18.4868 9.7334 17.7954V17.7925ZM7.99316 15.021C8.28613 16.8931 8.86621 18.4604 9.61328 19.4624C7.31641 18.856 5.45312 17.1919 4.57422 15.021H7.99316ZM18.4844 15.021C17.6055 17.1919 15.7422 18.856 13.4482 19.4624C14.1953 18.4604 14.7725 16.8931 15.0684 15.021H18.4844Z"
      fill="white"
    />
  </svg>