 <svg
    width="24"
    height="24"
    viewBox="0 0 24 24"
    fill="none"
    xmlns="http://www.w3.org/2000/svg"
  >
    <path
      d="M12.6961 19.1629C14.2029 17.2772 17.6395 12.7068 17.6395 10.1396C17.6395 7.02607 15.1135 4.5 11.9999 4.5C8.88642 4.5 6.36035 7.02607 6.36035 10.1396C6.36035 12.7068 9.79698 17.2772 11.3038 19.1629C11.6651 19.6124 12.3348 19.6124 12.6961 19.1629ZM11.9999 8.25973C12.4985 8.25973 12.9767 8.45779 13.3292 8.81033C13.6818 9.16287 13.8798 9.64102 13.8798 10.1396C13.8798 10.6382 13.6818 11.1163 13.3292 11.4689C12.9767 11.8214 12.4985 12.0195 11.9999 12.0195C11.5014 12.0195 11.0232 11.8214 10.6707 11.4689C10.3181 11.1163 10.1201 10.6382 10.1201 10.1396C10.1201 9.64102 10.3181 9.16287 10.6707 8.81033C11.0232 8.45779 11.5014 8.25973 11.9999 8.25973Z"
      fill="white"
    />
  </svg>