<svg width="110" height="110" viewBox="0 0 110 110" fill="none" xmlns="http://www.w3.org/2000/svg">
<path d="M55 109.857C69.549 109.857 83.5021 104.078 93.7898 93.7899C104.078 83.5022 109.857 69.549 109.857 55C109.857 40.451 104.078 26.4979 93.7898 16.2102C83.5021 5.92246 69.549 0.142883 55 0.142883C40.4509 0.142883 26.4978 5.92246 16.2101 16.2102C5.9224 26.4979 0.142822 40.451 0.142822 55C0.142822 69.549 5.9224 83.5022 16.2101 93.7899C26.4978 104.078 40.4509 109.857 55 109.857ZM79.2142 44.9286L51.7857 72.3572C49.7714 74.3715 46.5142 74.3715 44.5214 72.3572L30.8071 58.6429C28.7928 56.6286 28.7928 53.3715 30.8071 51.3786C32.8214 49.3857 36.0785 49.3643 38.0714 51.3786L48.1428 61.45L71.9285 37.6429C73.9428 35.6286 77.2 35.6286 79.1928 37.6429C81.1857 39.6572 81.2071 42.9143 79.1928 44.9072L79.2142 44.9286Z" fill="#0FCB52"/>
</svg>
