<svg width="86" height="84" viewBox="0 0 86 84" fill="none" xmlns="http://www.w3.org/2000/svg">
<rect x="0.9729" width="84.0543" height="84" rx="42" fill="#0FCB52"/>
<g clip-path="url(#clip0_692_876)">
<path fill-rule="evenodd" clip-rule="evenodd" d="M23.8197 32.1066C24.1356 32.2523 24.1919 32.4274 24.1895 32.7298C24.1784 34.2269 24.1821 35.7227 24.1858 37.2198L24.1858 37.2208C24.187 38.0484 24.4184 38.2737 25.2559 38.2737H36.1662H36.7074L36.7071 39.7201C36.7068 40.6535 36.7066 41.5643 36.7074 42.4745C36.7074 43.0426 36.8433 43.1908 37.4028 43.1908C41.1469 43.1944 44.8898 43.1944 48.6339 43.1908C49.202 43.1908 49.3428 43.0438 49.344 42.488C49.3457 41.6628 49.3451 40.8383 49.3446 40.0135V40.0133C49.3443 39.6009 49.344 39.1884 49.344 38.7757V38.2725H49.9623H60.8274C61.6232 38.2725 61.8632 38.0337 61.8656 37.233C61.8693 35.7209 61.873 34.2088 61.8619 32.6955C61.8595 32.4053 61.9256 32.2474 62.2195 32.1115C63.3324 31.5985 63.903 30.3766 63.6214 29.2183C63.3385 28.0552 62.315 27.2508 61.12 27.2532C59.9434 27.2556 58.8978 28.0674 58.6345 29.1816C58.3541 30.3692 58.8953 31.5789 59.9911 32.0943C60.3119 32.2462 60.3866 32.4188 60.3805 32.7457C60.3667 33.5716 60.3686 34.3981 60.3706 35.2248V35.2249C60.3714 35.5747 60.3722 35.9245 60.3719 36.2743C60.3719 36.3893 60.3643 36.5043 60.3569 36.6175C60.354 36.6622 60.3511 36.7066 60.3486 36.7506H48.1895V27.6499H50.8782C50.9026 27.7004 50.9257 27.7503 50.9485 27.7996L50.9486 27.7997C50.9977 27.9059 51.0454 28.0092 51.1022 28.1078C51.6311 29.0224 52.4368 29.4975 53.4836 29.4473C54.8206 29.3824 55.7952 28.3772 55.9176 27.0304C56.0217 25.8905 55.2014 24.7567 54.0309 24.4237C52.8249 24.0796 51.5834 24.6477 51.0275 25.8305C50.9088 26.0827 50.7716 26.1537 50.5121 26.15C49.7397 26.1387 48.9673 26.1413 48.1956 26.1438L47.7622 26.1451C46.872 26.1476 46.6774 26.3398 46.6774 27.2152V36.1972V36.7604H43.7854C43.782 36.7231 43.7779 36.6881 43.774 36.6547L43.774 36.6547C43.7665 36.5916 43.7597 36.534 43.7597 36.4763C43.7594 35.5672 43.7595 34.6582 43.7596 33.7492C43.7598 31.0224 43.76 28.296 43.7499 25.5697C43.7499 25.2661 43.9042 25.1926 44.1209 25.0897C45.2155 24.5682 45.7946 23.383 45.5277 22.2443C45.2412 21.0298 44.2482 20.2266 43.03 20.2253C41.8093 20.2241 40.8127 21.0224 40.5262 22.2333C40.2556 23.3781 40.8163 24.5682 41.9232 25.0751C42.2403 25.2195 42.2978 25.3934 42.2966 25.6946C42.2913 28.2609 42.2911 30.8273 42.2909 33.3937C42.2909 34.3559 42.2908 35.3182 42.2905 36.2804C42.2905 36.395 42.2836 36.5096 42.277 36.6197L42.277 36.6199C42.2743 36.6639 42.2718 36.7071 42.2697 36.7494H39.3716V36.1629L39.3717 33.8947V33.8885C39.372 31.6221 39.3722 29.3553 39.3704 27.0891C39.3704 26.3949 39.1328 26.1537 38.4362 26.1464H38.4361C37.5191 26.1366 36.6021 26.1268 35.6862 26.1513C35.3251 26.1611 35.1304 26.068 34.959 25.7191C34.3554 24.4874 32.8812 23.989 31.6397 24.5498C30.4203 25.1008 29.8117 26.521 30.2954 27.7736C30.697 28.8143 31.4965 29.3652 32.5996 29.4534C33.5656 29.5305 34.5427 28.9183 35.0141 28.0001C35.0863 27.8593 35.2296 27.656 35.3459 27.6523C35.9755 27.6293 36.6051 27.6319 37.2436 27.6347H37.2436L37.2438 27.6347C37.452 27.6355 37.6613 27.6364 37.8717 27.6364V36.7616H25.7175C25.7123 36.7347 25.7068 36.7103 25.7017 36.6877C25.6909 36.6405 25.682 36.601 25.682 36.562L25.6806 35.9416C25.6779 34.8041 25.6752 33.6665 25.6918 32.529C25.6942 32.4004 25.846 32.2204 25.9746 32.1556C26.9565 31.6621 27.4806 30.8675 27.4916 29.7827C27.5038 28.5461 26.5268 27.443 25.3551 27.2863C24.0119 27.1063 22.8561 27.825 22.4778 29.0775C22.1129 30.2835 22.6627 31.5715 23.8209 32.1066H23.8197ZM40.5813 38.9373H45.4677V41.0481H40.5813V38.9373ZM60.5324 40.3342H60.5323C58.3321 40.3336 56.1322 40.3329 53.9317 40.327C53.6562 40.327 53.6036 40.4543 53.5938 40.6894C53.5767 41.0848 53.5485 41.4815 53.4946 41.8733C52.7208 47.4809 47.4548 51.7405 41.4371 50.8161C36.3388 50.0337 32.6951 45.915 32.4613 40.7996C32.4441 40.4114 32.318 40.3221 31.9507 40.3233C29.7398 40.3331 27.5289 40.3325 25.3175 40.332H25.3174C24.4881 40.3317 23.6587 40.3315 22.8292 40.3319C22.7416 40.3319 22.6546 40.3381 22.5512 40.3454L22.5511 40.3455C22.4955 40.3494 22.4352 40.3537 22.3676 40.3576C22.3676 40.5913 22.3685 40.8232 22.3694 41.0539C22.3716 41.639 22.3738 42.2159 22.3615 42.7928C22.3554 43.0671 22.4496 43.1969 22.7068 43.2899C23.6226 43.6242 24.5347 43.9695 25.4346 44.3441C25.6122 44.4176 25.8105 44.6171 25.8583 44.7959C26.2843 46.3974 26.921 47.9058 27.7413 49.3444C27.8283 49.4975 27.8454 49.757 27.7781 49.9186C27.3997 50.8332 26.9945 51.738 26.5794 52.6367C26.4705 52.8718 26.4594 53.0236 26.6651 53.2256C27.8319 54.3692 28.9877 55.5262 30.1325 56.6918C30.3309 56.8938 30.4851 56.9085 30.7288 56.7959C31.6275 56.3808 32.5323 55.9743 33.4469 55.5948C33.6097 55.5275 33.8717 55.5348 34.0223 55.6217C35.4573 56.4494 36.9767 57.0653 38.5696 57.5146C38.7484 57.5648 38.9492 57.757 39.0214 57.9309C39.3973 58.8296 39.7413 59.7417 40.0817 60.6551C40.1711 60.8938 40.269 61.02 40.5604 61.0175C42.2109 61.0016 43.8601 61.004 45.5105 61.0151C45.7517 61.0163 45.8607 60.9294 45.9403 60.7151C46.08 60.3389 46.224 59.9642 46.3678 59.5897L46.3679 59.5896L46.3681 59.5889C46.5355 59.1531 46.7029 58.7175 46.8635 58.2798C46.9145 58.1393 46.9239 57.9819 46.9331 57.8281C46.9347 57.801 46.9363 57.774 46.9382 57.7472C46.9615 57.4295 46.9713 57.1089 46.9811 56.7883V56.7882C47.0016 56.1167 47.0221 55.4453 47.1671 54.8014C48.127 50.5431 52.4319 47.6291 56.7527 48.2511C57.1832 48.3127 57.6092 48.4052 58.0753 48.5063L58.0754 48.5064C58.3039 48.5559 58.542 48.6076 58.7949 48.6588C58.9148 48.3244 59.0357 47.9897 59.1568 47.6546L59.1574 47.653C59.4936 46.7226 59.8308 45.7892 60.1503 44.8498C60.2421 44.5792 60.3511 44.4188 60.629 44.3196C61.5326 43.9952 62.4264 43.6474 63.3165 43.2875C63.4585 43.2299 63.6544 43.0671 63.6581 42.9471C63.6804 42.2989 63.678 41.6499 63.6755 40.9997V40.9996C63.6748 40.7951 63.674 40.5905 63.674 40.3857C63.6394 40.3771 63.6099 40.3681 63.5836 40.3602C63.5354 40.3456 63.4982 40.3343 63.461 40.3343L63.4659 40.3355C62.4879 40.3348 61.5101 40.3345 60.5324 40.3342ZM48.3474 56.8779C48.3547 52.8755 51.6373 49.6174 55.6556 49.626C59.7083 49.6346 62.9651 52.8902 62.9614 56.9294C62.9577 60.9869 59.6875 64.2302 55.6042 64.2253C51.5797 64.2204 48.3401 60.9404 48.3474 56.8779ZM55.5185 59.7944C56.9241 58.3912 58.3211 56.9795 59.7107 55.5617V55.5642C60.2042 55.0597 60.2066 54.4096 59.7499 53.9762C59.2957 53.5452 58.6688 53.5807 58.1631 54.0852C57.1579 55.0891 56.1588 56.098 55.1634 57.1118C55.0658 57.2119 54.9854 57.3283 54.8968 57.4566C54.8521 57.5212 54.8054 57.5889 54.7533 57.6591C54.5634 57.4677 54.3836 57.2852 54.2104 57.1094C53.8239 56.7171 53.4699 56.3579 53.109 56.0062C52.6204 55.5299 51.9997 55.5103 51.554 55.9352C51.1083 56.36 51.1157 57.0346 51.5969 57.5268C52.345 58.2908 53.1016 59.0463 53.8656 59.7944C54.4031 60.3196 54.9847 60.327 55.5185 59.7944Z" fill="white"/>
</g>
<defs>
<clipPath id="clip0_692_876">
<rect width="44.0543" height="44" fill="white" transform="translate(20.9729 20)"/>
</clipPath>
</defs>
</svg>
