<svg width="86" height="84" viewBox="0 0 86 84" fill="none" xmlns="http://www.w3.org/2000/svg">
<rect x="0.9729" width="84.0543" height="84" rx="42" fill="#0FCB52"/>
<g clip-path="url(#clip0_692_882)">
<path fill-rule="evenodd" clip-rule="evenodd" d="M30.7277 25.1055C30.585 25.0653 30.4423 25.0251 30.2993 24.9863V24.985C27.6179 25.0626 25.9258 27.6476 27.0115 30.0773C27.1346 30.3531 27.1373 30.5378 26.9673 30.7935C25.5536 32.91 24.5764 35.2139 24.0851 37.7145C24.0222 38.0372 23.8522 38.1737 23.5603 38.2862C22.1413 38.835 21.2739 40.1389 21.2806 41.6717C21.2859 43.1563 22.1775 44.4709 23.5804 44.9916C23.8897 45.1068 24.0262 45.2674 24.0864 45.57C24.5791 48.0345 25.5322 50.3129 26.9245 52.4026C27.1239 52.7038 27.132 52.9314 27.0021 53.2607C26.8455 53.657 26.7317 54.0947 26.717 54.5178C26.6233 57.1817 29.3395 59.0024 31.7893 57.9368C31.818 57.9243 31.846 57.911 31.8736 57.8979L31.8739 57.8978C32.0417 57.8181 32.1959 57.7449 32.4211 57.8966C34.5871 59.3598 36.9553 60.3504 39.5188 60.8819C39.6848 60.9167 39.8803 61.1054 39.9472 61.2688C40.5563 62.7574 41.8294 63.653 43.3836 63.6516C44.9137 63.6503 46.1694 62.7574 46.7718 61.2835C46.8428 61.1094 47.0597 60.914 47.239 60.8765C49.7705 60.3571 52.0998 59.3692 54.2605 57.9582C54.4117 57.8591 54.7009 57.8497 54.8722 57.9234C56.2886 58.5271 57.8321 58.2647 58.9044 57.2058C59.9793 56.1443 60.2779 54.5512 59.6366 53.1416C59.5202 52.8846 59.5095 52.7078 59.6701 52.4682C61.1052 50.3236 62.0771 47.985 62.6018 45.4562C62.6393 45.2755 62.8348 45.0586 63.0101 44.9863C64.4961 44.3772 65.393 43.1041 65.389 41.5485C65.385 40.0184 64.4907 38.7614 63.0155 38.1643C62.8522 38.0987 62.6594 37.906 62.6259 37.7427C62.0958 35.1804 61.0985 32.8176 59.6647 30.6316C59.5804 30.503 59.6018 30.2755 59.634 30.1041C59.6722 29.901 59.7306 29.6975 59.7888 29.4946C59.8974 29.1156 60.0056 28.7383 59.982 28.3678C59.8241 25.8685 57.2725 24.3826 54.9285 25.3866C54.6473 25.5071 54.4573 25.5004 54.2056 25.3317C52.0771 23.902 49.7558 22.9301 47.2337 22.4468C46.9579 22.3946 46.7852 22.2902 46.6714 21.985C46.1293 20.5245 44.8214 19.6463 43.2739 19.6516C41.7638 19.657 40.4693 20.5499 39.9298 21.9903C39.8308 22.2527 39.6969 22.3906 39.4238 22.4428C36.8856 22.9328 34.5577 23.9314 32.3997 25.3478C32.2484 25.4455 31.9793 25.4227 31.7826 25.3799C31.4278 25.3028 31.0778 25.2042 30.7277 25.1055ZM46.6218 58.5255C48.8221 58.0971 50.8552 57.2793 52.6112 56.1603C52.8963 55.9783 52.9579 55.827 52.8816 55.487C52.2886 52.8444 54.5684 50.586 57.1935 51.2058C57.4773 51.2728 57.6072 51.1991 57.7544 50.9716C58.899 49.2045 59.6915 47.2929 60.1641 45.2433C60.2337 44.9394 60.1627 44.7801 59.8829 44.6074C57.5657 43.1764 57.5697 39.9274 59.8923 38.4977C60.1788 38.321 60.231 38.151 60.1627 37.8564C59.7103 35.8913 58.9673 34.0479 57.8963 32.3344C57.7009 32.0211 57.5349 31.9381 57.148 32.0064C56.6353 32.0974 56.0704 32.1188 55.5657 32.0064C53.5898 31.5606 52.4506 29.7105 52.8428 27.7132C52.8736 27.5552 52.8348 27.2822 52.729 27.2112C50.9191 26.0091 48.9459 25.1831 46.8107 24.7668C46.6955 24.744 46.4867 24.8471 46.4278 24.9515C45.0557 27.3892 41.5336 27.3946 40.152 24.9622C40.0918 24.8565 39.8856 24.7453 39.7745 24.7681C37.5951 25.2139 35.5898 26.0733 33.7678 27.3143C33.7848 27.4249 33.8037 27.5319 33.8221 27.6365C33.8646 27.8776 33.9048 28.106 33.9151 28.3357C33.9298 28.6664 33.9271 29.0104 33.8548 29.3303C33.4051 31.329 31.5001 32.5338 29.4894 32.088C29.1561 32.0144 28.9901 32.0854 28.8107 32.3718C27.725 34.0961 26.966 35.9502 26.5135 37.9341C26.4506 38.2112 26.4573 38.4 26.7598 38.586C29.1146 40.0358 29.1132 43.2581 26.7598 44.7172C26.4894 44.8846 26.4439 45.0492 26.5055 45.321C26.97 47.3544 27.7478 49.2554 28.8816 51.0104C29.0262 51.234 29.1574 51.2795 29.4064 51.2219C32.1453 50.5914 34.4104 52.835 33.7732 55.5619C33.7036 55.8591 33.7799 55.9756 34.0021 56.1175C35.8642 57.3036 37.8722 58.1161 40.0382 58.5258C41.5282 55.7414 45.1572 55.7734 46.6218 58.5255ZM37.7904 35.0743C37.2465 35.3911 36.7016 35.7084 36.1547 36.0252V36.0265C36.1794 36.0553 36.1971 36.078 36.2112 36.0959C36.2337 36.1246 36.2466 36.1411 36.2632 36.151C36.6325 36.3639 37.0018 36.5768 37.3711 36.7898L37.3762 36.7927L37.3767 36.793L37.3768 36.7931C39.273 37.8865 41.1692 38.9799 43.0757 40.0547C43.2257 40.139 43.5229 40.0935 43.6889 39.9998C45.5174 38.966 47.3383 37.918 49.1588 36.8701L49.159 36.87L50.1547 36.297C50.233 36.2517 50.3073 36.2003 50.3928 36.1411L50.3928 36.1411L50.3928 36.1411C50.4389 36.1092 50.4881 36.0751 50.5429 36.0386C49.9755 35.7101 49.4124 35.3823 48.8518 35.0559C47.2076 34.0988 45.5858 33.1546 43.9445 32.2461C43.634 32.0734 43.0704 32.0573 42.7665 32.226C41.0972 33.1483 39.4485 34.1086 37.7905 35.0743L37.7904 35.0743ZM51.7518 38.1443V38.1477C51.7007 38.1727 51.6584 38.1927 51.6221 38.21L51.622 38.21C51.5581 38.2403 51.5122 38.262 51.468 38.2876C50.8571 38.6396 50.2467 38.9922 49.6363 39.3448C48.0367 40.2688 46.4372 41.1928 44.8307 42.1055C44.551 42.2635 44.5376 42.4616 44.5376 42.72C44.5403 45.2099 44.5403 47.6985 44.5403 50.1872C44.5403 50.2757 44.5457 50.3643 44.5512 50.4548C44.5535 50.4915 44.5557 50.5285 44.5577 50.566C44.5843 50.5621 44.606 50.5601 44.6241 50.5585C44.6551 50.5557 44.6755 50.5539 44.6915 50.5446C45.2 50.2524 45.709 49.9613 46.218 49.6702L46.218 49.6702C47.8664 48.7276 49.5143 47.7851 51.1427 46.8083C51.4345 46.6329 51.7183 46.1738 51.725 45.8418C51.7618 43.9043 51.758 41.9668 51.7542 39.9924V39.9913C51.753 39.3806 51.7518 38.7664 51.7518 38.1477L51.7531 38.147L51.7518 38.1443ZM42.0839 50.6149C42.0843 50.6151 42.0847 50.6153 42.0851 50.6156H42.0838C42.0838 50.6153 42.0839 50.6151 42.0839 50.6149ZM40.1195 49.4818C40.7706 49.8572 41.425 50.2346 42.0839 50.6149C42.0928 50.5751 42.1009 50.5439 42.1076 50.518C42.1192 50.4735 42.1266 50.4448 42.1266 50.4161C42.1269 50.0904 42.1273 49.7647 42.1277 49.4389C42.1305 47.1593 42.1333 44.8789 42.1146 42.5995C42.1132 42.4241 41.9312 42.1858 41.7678 42.0895C39.9902 41.0458 38.2043 40.0159 36.4185 38.986C36.0512 38.7742 35.6839 38.5624 35.3167 38.3505C35.2418 38.3067 35.1625 38.2691 35.0785 38.2292C35.0394 38.2106 34.9992 38.1915 34.9579 38.1711C34.951 38.2018 34.9439 38.2273 34.9377 38.2497C34.9271 38.2878 34.9191 38.3165 34.9191 38.3452C34.9191 39.1747 34.919 40.0042 34.9188 40.8338C34.9185 42.4929 34.9182 44.1519 34.9191 45.811C34.9191 46.2702 35.148 46.6089 35.5336 46.8324C37.0543 47.7142 38.5777 48.5927 40.1195 49.4818Z" fill="white"/>
</g>
<defs>
<clipPath id="clip0_692_882">
<rect width="44.0543" height="44" fill="white" transform="translate(20.9729 20)"/>
</clipPath>
</defs>
</svg>
