<svg width="86" height="84" viewBox="0 0 86 84" fill="none" xmlns="http://www.w3.org/2000/svg">
<rect x="0.9729" width="84.0543" height="84" rx="42" fill="#0FCB52"/>
<path fill-rule="evenodd" clip-rule="evenodd" d="M44.9389 20.1287L44.9388 20.1287C44.7215 20.0939 44.5042 20.0592 44.287 20.0229H41.6255C41.3466 20.0736 41.0665 20.1196 40.7863 20.1656C40.1663 20.2674 39.5458 20.3692 38.9372 20.522C30.7918 22.561 25.5118 30.4291 26.6887 38.8106C27.3022 43.1856 29.3878 46.7485 32.8523 49.4779C33.3889 49.9022 33.9747 50.2639 34.5611 50.626L34.5611 50.626L34.5611 50.626L34.5611 50.626L34.5611 50.626L34.5611 50.626L34.5611 50.6261L34.5612 50.6261L34.5612 50.6261C34.9364 50.8578 35.3118 51.0896 35.6748 51.3381C35.9645 51.5366 36.24 51.6135 36.5816 51.6135L37.2458 51.6123H37.2463H37.2468H37.2473H37.2478H37.2483H37.2488H37.2494H37.2499C41.0177 51.6055 44.7869 51.5986 48.5546 51.6189C49.3541 51.6225 50.0338 51.4686 50.7635 51.0751C56.9343 47.7555 60.4883 40.7906 59.238 33.6111C58.1022 27.0969 52.8204 21.6148 46.3439 20.3682C45.8779 20.2789 45.4087 20.2038 44.9389 20.1287L44.9389 20.1287ZM44.3758 29.2898C44.3752 29.4418 44.3746 29.5938 44.3746 29.7459H44.3782C44.5162 29.7923 44.6504 29.8352 44.7812 29.8771C45.0843 29.9742 45.3697 30.0656 45.6445 30.1805C45.9068 30.2901 46.159 30.4226 46.4436 30.5722L46.4437 30.5722L46.4437 30.5723L46.4438 30.5723C46.5724 30.6399 46.7077 30.711 46.8536 30.7851C46.9424 30.6902 47.0335 30.5909 47.1267 30.4893C47.3339 30.2635 47.5519 30.026 47.7801 29.7977C48.4044 29.1753 49.2396 29.1467 49.8013 29.7155C50.3611 30.2825 50.3218 31.1034 49.6993 31.7384C49.6064 31.833 49.4962 31.9238 49.3861 32.0145L49.3861 32.0146C49.1401 32.2173 48.8945 32.4197 48.8426 32.6631C48.7966 32.8813 48.9419 33.1369 49.0899 33.397C49.1663 33.5313 49.2433 33.6667 49.2951 33.7989C49.4094 34.0903 49.5103 34.3868 49.6156 34.6965L49.6156 34.6966L49.6157 34.6968C49.6635 34.8375 49.7123 34.9809 49.7637 35.1278C49.9041 35.1278 50.0477 35.1274 50.1933 35.127H50.1934H50.1936H50.1937H50.1939H50.194H50.1942H50.1944H50.1945C50.4917 35.1262 50.7976 35.1254 51.1034 35.1278C51.978 35.135 52.6076 35.7038 52.6165 36.489C52.6273 37.2867 51.9852 37.868 51.0855 37.8751C50.7854 37.8776 50.4862 37.8767 50.2038 37.8759C50.0688 37.8755 49.9376 37.8751 49.812 37.8751L49.6274 38.3182L49.6267 38.32C49.3482 38.9886 49.0713 39.6532 48.7549 40.415C48.8212 40.4738 48.8943 40.5371 48.972 40.6044L48.9721 40.6045L48.9722 40.6046L48.9722 40.6046L48.9724 40.6048C49.1898 40.7932 49.4425 41.0122 49.6796 41.2467C50.3343 41.8942 50.37 42.7259 49.7887 43.2982C49.22 43.8581 48.4008 43.8169 47.7658 43.1927C47.6715 43.1001 47.581 42.9904 47.4905 42.8809C47.2875 42.6351 47.0848 42.3897 46.8411 42.3377C46.6232 42.2918 46.3681 42.4375 46.1084 42.5857C45.9737 42.6626 45.8379 42.7401 45.7053 42.7921C45.4175 42.905 45.1246 43.0048 44.8196 43.1087C44.6754 43.1578 44.5286 43.2079 44.3782 43.2607V44.5163C44.3746 45.4642 43.8273 46.1064 43.0135 46.1135C42.2032 46.1207 41.6326 45.4714 41.6291 44.536V43.309L41.6037 43.2984L41.6004 43.297L41.5931 43.294L41.5919 43.2935C40.7774 42.954 40.0022 42.6308 39.1125 42.2608C39.0279 42.3503 38.9382 42.4477 38.8443 42.5498L38.844 42.5501C38.6261 42.7869 38.3849 43.0491 38.1287 43.2964C37.7406 43.6738 37.2648 43.7955 36.7444 43.6184C36.2274 43.4431 35.9216 43.0657 35.8286 42.5291C35.7499 42.073 35.9055 41.6831 36.2185 41.3558C36.3234 41.2458 36.4485 41.1405 36.5735 41.0353L36.5735 41.0353L36.5735 41.0352L36.5735 41.0352L36.5735 41.0352L36.5735 41.0352L36.5736 41.0352L36.5736 41.0352L36.5736 41.0352C36.847 40.8049 37.1195 40.5755 37.1772 40.3005C37.2276 40.0626 37.0599 39.7833 36.8885 39.4976C36.7983 39.3473 36.707 39.1953 36.646 39.0467C36.5419 38.7945 36.4596 38.5347 36.3733 38.2623L36.3733 38.2622C36.3335 38.1367 36.2929 38.0084 36.2489 37.8769C36.1065 37.8769 35.9618 37.8773 35.8156 37.8777H35.8152H35.8147H35.8143H35.8139H35.8135H35.8131H35.8127C35.5135 37.8785 35.2078 37.8793 34.9021 37.8769C34.0274 37.8698 33.3978 37.2992 33.3889 36.514C33.38 35.7145 34.0167 35.1368 34.92 35.1296C35.2188 35.1284 35.5175 35.1288 35.7997 35.1292C35.9348 35.1294 36.066 35.1296 36.1917 35.1296C36.3408 34.7707 36.487 34.4198 36.6358 34.0625L36.6369 34.0598L36.6403 34.0518L36.6405 34.0513L36.6414 34.0491L36.6422 34.0471L36.6435 34.0442L36.6468 34.0361L36.647 34.0356L36.6472 34.0352L36.6483 34.0324C36.8381 33.5768 37.0325 33.1101 37.2434 32.6023C37.1685 32.5335 37.0862 32.4595 36.9992 32.3813L36.9991 32.3812L36.9986 32.3808L36.9986 32.3808L36.9986 32.3808C36.7802 32.1843 36.5319 31.961 36.2954 31.7259C35.673 31.1052 35.6461 30.2682 36.2149 29.7065C36.7837 29.1449 37.6029 29.1842 38.2378 29.8085C38.3321 29.9011 38.4227 30.0108 38.5132 30.1203C38.7162 30.3661 38.9188 30.6115 39.1626 30.6634C39.3808 30.7094 39.6364 30.5641 39.8965 30.4161C40.0307 30.3397 40.1662 30.2627 40.2983 30.2109C40.5898 30.0966 40.8863 29.9957 41.196 29.8904L41.1961 29.8904L41.197 29.89C41.3375 29.8423 41.4806 29.7936 41.6273 29.7423C41.6273 29.5982 41.6265 29.4508 41.6257 29.3013L41.6257 29.3001C41.6241 28.9934 41.6225 28.6774 41.6273 28.3615C41.6398 27.5173 42.2122 26.902 42.9866 26.8912C43.7683 26.8805 44.3639 27.5137 44.3746 28.3776C44.3782 28.6816 44.377 28.9857 44.3758 29.2898ZM63.2534 37.8806C64.0887 37.9557 64.6557 37.6141 64.9759 36.8468V36.845V36.1581C64.6557 35.3908 64.0887 35.0474 63.2534 35.1243C63.0372 35.1448 62.8189 35.1399 62.6002 35.1351H62.6001H62.6001H62.6001H62.6H62.6H62.6H62.5999H62.5999C62.4749 35.1323 62.3498 35.1295 62.225 35.1315C61.4487 35.144 60.8638 35.7235 60.8567 36.4801C60.8495 37.2617 61.4344 37.8591 62.225 37.8734C62.3562 37.8762 62.4876 37.8734 62.6189 37.8707C62.8314 37.8662 63.0434 37.8618 63.2534 37.8806ZM42.9795 57.1011C42.3254 57.1011 41.6712 57.1014 41.0171 57.1017C39.3818 57.1024 37.7465 57.1031 36.1112 57.0993C35.4387 57.0975 34.852 56.5806 34.7661 55.9456C34.6713 55.2534 35.0648 54.6167 35.7284 54.4164C35.8894 54.3681 36.0665 54.3591 36.2346 54.3591C40.7419 54.3556 45.2474 54.3556 49.7548 54.3591C50.6276 54.3591 51.2357 54.9261 51.2375 55.7274C51.2375 56.5341 50.633 57.1011 49.7601 57.1011C48.2565 57.1023 46.7529 57.1019 45.2493 57.1015H45.2385C44.4855 57.1013 43.7325 57.1011 42.9795 57.1011ZM48.2487 59.8608H37.7084C38.2575 62.3899 40.8313 64.1911 43.5178 63.9568C45.7822 63.76 48.1593 61.7049 48.2487 59.8608ZM59.4509 50.2433C58.7926 50.238 57.2723 49.1094 57.0666 48.4726C56.8931 47.9324 57.0541 47.3547 57.4798 46.997C57.9126 46.6321 58.5637 46.5463 59.0413 46.8539C59.5206 47.1633 59.9803 47.5103 60.4131 47.8806C60.8603 48.2651 60.9658 48.8786 60.7405 49.4116C60.5222 49.9285 60.0268 50.2451 59.4526 50.2415L59.4509 50.2433ZM22.8557 37.8755C22.9273 37.8753 22.9988 37.8751 23.0704 37.8751L23.0722 37.8733C23.1532 37.8733 23.2343 37.8739 23.3154 37.8745C23.4776 37.8757 23.6397 37.8769 23.8019 37.8733C24.5674 37.8536 25.1452 37.2562 25.1416 36.4925C25.138 35.7359 24.5496 35.1457 23.7804 35.1331C23.3226 35.126 22.8647 35.1278 22.4068 35.1331C21.6055 35.1421 21.0206 35.7305 21.0242 36.5122C21.0278 37.2866 21.6216 37.8644 22.4265 37.8751C22.5694 37.8763 22.7123 37.8759 22.8552 37.8755H22.8557ZM29.0998 24.9256C28.9835 26.0077 27.8549 26.6767 26.9659 26.1508C26.4776 25.8611 26.0215 25.5033 25.5941 25.1277C25.0646 24.6609 25.0253 23.8596 25.4528 23.2998C25.8731 22.7507 26.6708 22.5861 27.2593 22.9707C27.7136 23.2676 28.1697 23.5788 28.5507 23.958C28.7245 24.133 28.8346 24.3709 28.9447 24.609C28.9944 24.7164 29.0442 24.8239 29.0998 24.9256ZM57.0797 24.5508L57.0797 24.5509L57.0795 24.5512C57.0423 24.6228 57.0093 24.6864 56.9789 24.7359H56.9807C57.0147 25.4693 57.2347 25.886 57.6944 26.1454C58.1523 26.4029 58.6334 26.4137 59.077 26.1257C59.5063 25.8449 59.9212 25.5354 60.3183 25.2117C60.9175 24.7234 61.0015 23.8935 60.5401 23.2943C60.0983 22.7202 59.2809 22.5932 58.6602 23.0224C58.6081 23.0583 58.5557 23.094 58.5033 23.1297C58.1521 23.3689 57.7973 23.6106 57.5048 23.9078C57.3127 24.1025 57.1808 24.3563 57.0797 24.5508ZM26.6297 50.2435C25.9572 50.2435 25.4635 49.9144 25.2525 49.3957C25.0343 48.8609 25.1505 48.2546 25.5977 47.8718C26.0091 47.5212 26.4437 47.1921 26.8962 46.8952C27.4543 46.5303 28.2091 46.6681 28.6437 47.1671C29.0801 47.6679 29.1391 48.4585 28.6562 48.9235C28.2575 49.3075 27.7904 49.6243 27.3266 49.9388C27.2245 50.008 27.1225 50.0772 27.0214 50.1469C26.9247 50.2141 26.7896 50.2258 26.7003 50.2335H26.7003C26.6707 50.236 26.6462 50.2382 26.6297 50.2417V50.2435ZM42.992 40.6206C45.2761 40.6224 47.1148 38.7962 47.1183 36.5211H47.1166C47.1219 34.2317 45.2993 32.3912 43.0278 32.3841C40.7383 32.3769 38.8889 34.1977 38.88 36.4621C38.8728 38.773 40.6972 40.6206 42.992 40.6206Z" fill="white"/>
</svg>
