<svg width="86" height="84" viewBox="0 0 86 84" fill="none" xmlns="http://www.w3.org/2000/svg">
<rect x="0.9729" width="84.0543" height="84" rx="42" fill="#0FCB52"/>
<g clip-path="url(#clip0_692_843)">
<path d="M29.3834 24.8499C26.9565 24.8499 24.9834 26.8114 24.9834 29.2241V44.5341H21.9034C21.1746 44.5341 20.5834 45.1219 20.5834 45.8463C20.5834 48.7443 22.9484 51.0955 25.8634 51.0955H42.5834V44.5341H29.3834V29.2241H51.3834V31.4113H55.7834V29.2241C55.7834 26.8114 53.8102 24.8499 51.3834 24.8499H29.3834ZM55.7834 33.5984H48.0834C46.2615 33.5984 44.7834 35.0679 44.7834 36.8791V56.5633C44.7834 58.3745 46.2615 59.844 48.0834 59.844H61.2834C63.1053 59.844 64.5834 58.3745 64.5834 56.5633V42.3469H57.9834C56.7665 42.3469 55.7834 41.3696 55.7834 40.1598V33.5984ZM57.9834 33.5984V40.1598H64.5834L57.9834 33.5984Z" fill="white"/>
</g>
<defs>
<clipPath id="clip0_692_843">
<rect width="44.0543" height="44" fill="white" transform="translate(20.9729 20)"/>
</clipPath>
</defs>
</svg>
