<svg width="86" height="84" viewBox="0 0 86 84" fill="none" xmlns="http://www.w3.org/2000/svg">
<rect x="0.9729" width="84.0543" height="84" rx="42" fill="#0FCB52"/>
<g clip-path="url(#clip0_692_826)">
<path fill-rule="evenodd" clip-rule="evenodd" d="M50.9127 30.9048C50.9482 30.8822 50.9764 30.8658 50.9995 30.8524L50.9995 30.8524C51.0341 30.8323 51.057 30.819 51.0756 30.8012L51.945 29.9327L51.9459 29.9318C54.1689 27.7114 56.3922 25.4906 58.604 23.2592C58.715 23.147 58.7631 22.899 58.7323 22.7337C58.5991 21.9936 58.435 21.2596 58.2672 20.5256C58.1352 19.9483 57.7602 19.8336 57.3408 20.2505C55.0427 22.5413 52.747 24.8332 50.4662 27.1425C50.3218 27.2893 50.2244 27.5902 50.2602 27.7901C50.396 28.5435 50.5597 29.2915 50.728 30.0601C50.7889 30.3386 50.8505 30.6198 50.9115 30.9048H50.9127ZM40.2288 44.5369C40.1301 44.3383 40.1647 44.0386 40.2263 43.8054C40.2579 43.6866 40.3698 43.586 40.4784 43.4882L40.4785 43.4882L40.4785 43.4882C40.5142 43.4561 40.5496 43.4242 40.5816 43.3922C47.2404 36.7322 53.9004 30.0734 60.5604 23.4146C60.5889 23.3862 60.6171 23.3573 60.6453 23.3284L60.6453 23.3283L60.6454 23.3283C60.7357 23.2357 60.8262 23.1429 60.9268 23.0631C61.245 22.809 61.6657 22.8299 61.9321 23.1025C62.2048 23.3813 62.2183 23.781 61.9568 24.1067C61.9006 24.1773 61.8358 24.24 61.7706 24.3031L61.7706 24.3031L61.7704 24.3033C61.7469 24.326 61.7234 24.3487 61.7002 24.3719L59.6855 26.3866L59.6797 26.3924C53.6502 32.422 47.6211 38.4513 41.587 44.4765C41.4563 44.6064 41.3029 44.713 41.1315 44.8321C41.044 44.8929 40.9518 44.957 40.8555 45.0291C40.7742 44.9686 40.6903 44.9164 40.6106 44.8669C40.4434 44.763 40.2948 44.6706 40.2288 44.5369ZM55.8314 35.9968L55.8299 35.9964C54.9555 35.8038 54.0814 35.6112 53.2047 35.432C53.0344 35.3975 52.7853 35.4209 52.6656 35.5245C52.3159 35.8262 51.9855 36.1506 51.6484 36.4814L51.6484 36.4814L51.6482 36.4816L51.6481 36.4817C51.5264 36.6012 51.4038 36.7215 51.2791 36.842C55.2783 42.7619 53.7499 50.0917 48.828 54.0564C43.8913 58.0346 36.8439 57.8163 32.2106 53.5346C27.5404 49.2183 26.7102 42.2351 30.2653 37.0245C32.0614 34.3934 34.5075 32.6244 37.5915 31.83C41.376 30.8543 44.9053 31.5352 48.1656 33.7223C48.2846 33.6018 48.4008 33.4806 48.516 33.3604C48.7914 33.0732 49.0617 32.7912 49.3547 32.5356C49.6323 32.2938 49.6545 32.0508 49.5805 31.7239C49.4779 31.2727 49.3832 30.8196 49.2884 30.3667L49.2884 30.3666L49.2884 30.3665L49.2883 30.3665L49.2883 30.3664C49.1471 29.6914 49.0059 29.0164 48.8391 28.3477C48.6417 27.5606 48.564 26.8304 49.2585 26.2284C41.3958 22.4192 30.9191 24.2239 24.8783 32.3888C18.9091 40.4588 19.8861 51.5374 27.1 58.454C34.3447 65.4002 45.4801 65.89 53.3071 59.5371C61.1772 53.1497 62.2652 42.879 58.7866 35.8342C57.9453 36.4078 57.8157 36.4324 56.7647 36.203V36.2018C56.4535 36.1338 56.1424 36.0653 55.8314 35.9968ZM47.8732 46.1862C47.9534 46.0148 48.1039 45.8236 48.2692 45.752L48.3012 45.7382C49.3733 45.2759 49.3782 45.2739 49.3782 44.0682V44.0567C49.3782 42.9986 49.3782 42.985 48.3568 42.6126C48.0644 42.5065 47.9226 42.3461 47.8399 42.0489C47.761 41.7659 47.6505 41.4913 47.5329 41.1989L47.5328 41.1986L47.5327 41.1983C47.4812 41.0703 47.4283 40.9388 47.3761 40.8017C47.1565 41.021 46.9415 41.2369 46.7293 41.4499L46.7289 41.4503L46.7289 41.4503C46.1651 42.0163 45.6215 42.5621 45.0669 43.0962C44.8547 43.3009 44.7992 43.4958 44.8288 43.7845C45.0743 46.1061 43.2695 48.1192 40.8925 48.1957C38.6104 48.2685 36.6675 46.2676 36.7859 43.9695C36.9081 41.5986 39.0125 39.8482 41.3563 40.1553C41.5043 40.1751 41.714 40.1479 41.8102 40.0554C42.423 39.471 43.0249 38.875 43.6547 38.2514L43.6547 38.2514L43.6547 38.2514L43.6547 38.2514L43.6556 38.2505L43.6564 38.2497C43.8489 38.0591 44.044 37.8659 44.2428 37.6697C44.1506 37.6263 44.0684 37.5815 43.9921 37.5399C43.8409 37.4576 43.7132 37.388 43.5779 37.3675C42.707 37.2367 42.2753 36.7001 42.0767 35.8884C42.0471 35.7676 41.8312 35.6171 41.6955 35.6097C41.112 35.5788 40.5261 35.5825 39.9414 35.6084C39.8131 35.6146 39.6034 35.7453 39.5824 35.8502C39.3999 36.7186 38.8485 37.0912 38.0368 37.4255C37.2288 37.7573 36.575 37.8954 35.8299 37.4144C35.7374 37.3551 35.4981 37.4033 35.4043 37.4884C34.9726 37.8831 34.5594 38.2976 34.1646 38.7281C34.077 38.8231 34.0153 39.0624 34.0721 39.15C34.5668 39.9111 34.5692 40.6463 34.0302 41.379C34.0215 41.3914 34.0166 41.4074 34.0141 41.4222C33.9019 42.2746 33.3912 42.7298 32.5708 42.8827C32.3118 42.9309 32.2402 43.0949 32.2526 43.3503L32.2544 43.3869C32.2749 43.7895 32.2956 44.1975 32.2489 44.5949C32.1835 45.1426 32.3525 45.4646 32.9175 45.5658C33.4602 45.6632 33.781 45.9716 33.908 46.544C33.9631 46.7917 34.0792 47.0252 34.1957 47.2594C34.2723 47.4135 34.3491 47.5679 34.4089 47.727C34.4705 47.8923 34.4927 48.1069 34.4409 48.271C34.3974 48.4098 34.3228 48.5515 34.2493 48.691C34.123 48.9309 34 49.1644 34.0437 49.3664C34.0982 49.6172 34.3426 49.8294 34.5839 50.0387C34.676 50.1186 34.7676 50.1981 34.848 50.2792L34.8536 50.2849C35.5857 51.0243 35.598 51.0367 36.5516 50.5925C36.8686 50.4445 37.1005 50.4679 37.4027 50.6295C37.6425 50.7573 37.8983 50.8549 38.1542 50.9525L38.1543 50.9525L38.1543 50.9525C38.3579 51.0301 38.5615 51.1078 38.7572 51.2007C38.9422 51.2883 39.1568 51.4388 39.2321 51.6152L39.2488 51.6542C39.7007 52.7119 39.7028 52.7167 40.8752 52.7167C41.9643 52.7167 41.9658 52.7131 42.3747 51.7227L42.3876 51.6916C42.464 51.5066 42.633 51.3105 42.8107 51.2253C43.3337 50.9712 43.8777 50.7591 44.4229 50.5568C44.5747 50.5 44.7782 50.4864 44.9287 50.5395C45.2005 50.6341 45.4637 50.7526 45.7369 50.8756C45.8518 50.9273 45.9685 50.9798 46.0882 51.0317C46.1802 50.935 46.2694 50.84 46.357 50.7467L46.3576 50.7461L46.3591 50.7444L46.3594 50.7441L46.3595 50.744C46.5438 50.5478 46.7215 50.3585 46.9049 50.1743L46.9208 50.1583C47.6859 49.3873 47.6949 49.3781 47.2441 48.398C47.1158 48.118 47.1244 47.9083 47.2688 47.6295C47.4022 47.3729 47.5065 47.1013 47.611 46.8293L47.611 46.8293L47.611 46.8292L47.611 46.8292L47.611 46.8292C47.6939 46.6135 47.7768 46.3976 47.8744 46.1887L47.8732 46.1862ZM63.6437 26.577C63.9198 26.6333 64.1961 26.6897 64.4708 26.7527L64.4696 26.7551C65.0864 26.897 65.1999 27.2535 64.7632 27.6914C62.4737 29.9883 60.1817 32.2827 57.8799 34.5673C57.7528 34.6931 57.5209 34.8239 57.3667 34.7943C56.5455 34.6389 55.7293 34.4596 54.9132 34.2802C54.6665 34.226 54.4198 34.1718 54.173 34.1183C54.1472 34.0702 54.1213 34.0234 54.0954 33.9766L54.0953 33.9764C54.15 33.9326 54.2062 33.8905 54.2624 33.8484C54.3787 33.7614 54.4947 33.6745 54.5961 33.573C56.9473 31.228 59.2973 28.883 61.6373 26.5282C61.868 26.2962 62.0703 26.2124 62.4021 26.3C62.8121 26.4074 63.2278 26.4922 63.6437 26.577Z" fill="white"/>
</g>
<defs>
<clipPath id="clip0_692_826">
<rect width="44.0543" height="44" fill="white" transform="translate(20.9729 20)"/>
</clipPath>
</defs>
</svg>
